<mxfile host="app.diagrams.net" modified="2021-12-31T07:30:40.641Z" agent="5.0 (Macintosh)" etag="bP9qnk-_UJ871mXHrF6y" version="16.1.0" type="github">
  <diagram id="3RtSVCfyJIiwDnZWP-Jj" name="Page-1">
    <mxGraphModel dx="1426" dy="792" grid="1" gridSize="10" guides="1" tooltips="1" connect="1" arrows="1" fold="1" page="1" pageScale="1" pageWidth="827" pageHeight="1169" math="0" shadow="0">
      <root>
        <mxCell id="0" />
        <mxCell id="1" parent="0" />
        <mxCell id="F8fSpjS6njOR8kzv7lIe-1" value="美居用户 APP" style="ellipse;whiteSpace=wrap;html=1;aspect=fixed;" vertex="1" parent="1">
          <mxGeometry x="40" y="130" width="70" height="70" as="geometry" />
        </mxCell>
        <mxCell id="F8fSpjS6njOR8kzv7lIe-3" value="" style="rounded=1;whiteSpace=wrap;html=1;" vertex="1" parent="1">
          <mxGeometry x="190" y="40" width="360" height="240" as="geometry" />
        </mxCell>
        <mxCell id="F8fSpjS6njOR8kzv7lIe-4" value="阿里云" style="rounded=1;whiteSpace=wrap;html=1;fontFamily=Courier New;fontColor=#FFFFFF;fillColor=#000000;fontSize=14;" vertex="1" parent="1">
          <mxGeometry x="220" y="20" width="80" height="30" as="geometry" />
        </mxCell>
        <mxCell id="F8fSpjS6njOR8kzv7lIe-5" value="" style="rounded=1;whiteSpace=wrap;html=1;fontFamily=Courier New;fontSize=14;fontColor=#FFFFFF;fillColor=#D5E8D4;" vertex="1" parent="1">
          <mxGeometry x="220" y="80" width="300" height="170" as="geometry" />
        </mxCell>
        <mxCell id="F8fSpjS6njOR8kzv7lIe-6" value="美居移动中台" style="rounded=1;whiteSpace=wrap;html=1;fontFamily=Courier New;fontColor=#FFFFFF;fillColor=#000000;fontSize=14;" vertex="1" parent="1">
          <mxGeometry x="400" y="150" width="110" height="30" as="geometry" />
        </mxCell>
        <mxCell id="F8fSpjS6njOR8kzv7lIe-7" value="美居网关" style="rounded=1;whiteSpace=wrap;html=1;fontFamily=Courier New;fontColor=#FFFFFF;fillColor=#000000;fontSize=14;" vertex="1" parent="1">
          <mxGeometry x="240" y="150" width="110" height="30" as="geometry" />
        </mxCell>
        <mxCell id="F8fSpjS6njOR8kzv7lIe-8" value="" style="endArrow=classic;startArrow=classic;html=1;rounded=0;fontFamily=Courier New;fontSize=14;fontColor=#FFFFFF;exitX=1;exitY=0.5;exitDx=0;exitDy=0;entryX=0;entryY=0.5;entryDx=0;entryDy=0;" edge="1" parent="1" source="F8fSpjS6njOR8kzv7lIe-1" target="F8fSpjS6njOR8kzv7lIe-7">
          <mxGeometry width="50" height="50" relative="1" as="geometry">
            <mxPoint x="110" y="440" as="sourcePoint" />
            <mxPoint x="160" y="390" as="targetPoint" />
          </mxGeometry>
        </mxCell>
        <mxCell id="F8fSpjS6njOR8kzv7lIe-9" value="" style="endArrow=classic;startArrow=classic;html=1;rounded=0;fontFamily=Courier New;fontSize=14;fontColor=#FFFFFF;entryX=0;entryY=0.5;entryDx=0;entryDy=0;" edge="1" parent="1" source="F8fSpjS6njOR8kzv7lIe-7" target="F8fSpjS6njOR8kzv7lIe-6">
          <mxGeometry width="50" height="50" relative="1" as="geometry">
            <mxPoint x="100" y="570" as="sourcePoint" />
            <mxPoint x="150" y="520" as="targetPoint" />
          </mxGeometry>
        </mxCell>
        <mxCell id="F8fSpjS6njOR8kzv7lIe-10" value="账户" style="ellipse;whiteSpace=wrap;html=1;aspect=fixed;fontFamily=Courier New;fontSize=14;fontColor=#FFFFFF;fillColor=#FF3333;" vertex="1" parent="1">
          <mxGeometry x="425" y="330" width="60" height="60" as="geometry" />
        </mxCell>
        <mxCell id="F8fSpjS6njOR8kzv7lIe-11" value="日志" style="ellipse;whiteSpace=wrap;html=1;aspect=fixed;fontFamily=Courier New;fontSize=14;fontColor=#FFFFFF;fillColor=#FF3333;" vertex="1" parent="1">
          <mxGeometry x="265" y="330" width="60" height="60" as="geometry" />
        </mxCell>
        <mxCell id="F8fSpjS6njOR8kzv7lIe-12" value="" style="endArrow=classic;html=1;rounded=0;fontFamily=Courier New;fontSize=14;fontColor=#FFFFFF;exitX=0.5;exitY=1;exitDx=0;exitDy=0;entryX=0.5;entryY=0;entryDx=0;entryDy=0;" edge="1" parent="1" source="F8fSpjS6njOR8kzv7lIe-7" target="F8fSpjS6njOR8kzv7lIe-11">
          <mxGeometry width="50" height="50" relative="1" as="geometry">
            <mxPoint x="40" y="580" as="sourcePoint" />
            <mxPoint x="90" y="530" as="targetPoint" />
          </mxGeometry>
        </mxCell>
        <mxCell id="F8fSpjS6njOR8kzv7lIe-13" value="" style="endArrow=classic;html=1;rounded=0;fontFamily=Courier New;fontSize=14;fontColor=#FFFFFF;exitX=0.5;exitY=1;exitDx=0;exitDy=0;" edge="1" parent="1" source="F8fSpjS6njOR8kzv7lIe-6" target="F8fSpjS6njOR8kzv7lIe-10">
          <mxGeometry width="50" height="50" relative="1" as="geometry">
            <mxPoint x="180" y="630" as="sourcePoint" />
            <mxPoint x="230" y="580" as="targetPoint" />
          </mxGeometry>
        </mxCell>
      </root>
    </mxGraphModel>
  </diagram>
</mxfile>
